<?xml version="1.0" standalone="no"?>
<!DOCTYPE svg PUBLIC "-//W3C//DTD SVG 20010904//EN"
 "http://www.w3.org/TR/2001/REC-SVG-20010904/DTD/svg10.dtd">
<svg version="1.0" xmlns="http://www.w3.org/2000/svg"
 width="500.000000pt" height="500.000000pt" viewBox="0 0 500.000000 500.000000"
 preserveAspectRatio="xMidYMid meet">

<g transform="translate(0.000000,500.000000) scale(0.100000,-0.100000)"
fill="#000000" stroke="none">
<path d="M0 2500 l0 -2500 2500 0 2500 0 0 2500 0 2500 -2500 0 -2500 0 0
-2500z m2761 1671 c153 -39 295 -127 424 -262 90 -94 143 -174 180 -273 22
-58 23 -70 12 -97 l-12 -31 -24 58 c-66 165 -215 356 -242 313 -5 -8 -9 -24
-9 -36 0 -29 -5 -29 -42 3 -42 34 -127 77 -143 70 -8 -3 -19 1 -25 9 -6 8 -28
19 -48 26 -20 7 -43 18 -50 26 -8 8 -30 13 -52 11 -21 -1 -45 3 -52 10 -12 9
-70 13 -203 13 -11 0 -63 1 -115 3 -93 4 -141 -6 -177 -35 -7 -6 -31 -12 -53
-13 -24 -2 -51 -11 -68 -24 -15 -12 -44 -31 -64 -42 -20 -11 -39 -28 -42 -38
-4 -11 -29 -43 -56 -73 -73 -79 -82 -103 -74 -196 4 -43 13 -90 20 -105 35
-68 164 -139 367 -203 101 -31 119 -40 132 -64 13 -26 13 -30 -9 -50 l-22 -21
-28 29 c-37 38 -113 78 -264 136 -190 73 -239 121 -263 260 -49 285 197 533
606 610 106 19 293 13 396 -14z m-326 -173 c14 -6 25 -17 25 -25 0 -11 -5 -10
-25 3 -16 10 -34 14 -50 10 -14 -4 -25 -2 -25 3 0 8 15 15 42 20 4 0 19 -4 33
-11z m-104 -8 c10 -6 19 -15 19 -21 0 -6 -6 -6 -18 0 -23 12 -121 -6 -145 -27
-16 -15 -17 -15 -11 1 15 41 112 69 155 47z m232 3 c3 -5 0 -19 -5 -33 l-10
-25 -9 23 c-9 24 -28 29 -47 10 -7 -7 -12 -8 -12 -2 0 27 70 49 83 27z m115
-48 l2 -40 -15 33 c-11 26 -20 32 -45 32 -16 0 -30 5 -30 11 0 6 17 9 43 7 41
-3 42 -4 45 -43z m100 13 c7 -7 12 -23 11 -37 0 -25 -1 -26 -11 -4 -11 22 -51
38 -68 28 -11 -7 -14 8 -3 18 11 11 58 8 71 -5z m-618 -34 c0 -24 -1 -24 -21
-10 -20 13 -26 13 -63 -5 l-41 -20 33 30 c43 41 92 43 92 5z m691 -1 c16 -10
29 -23 29 -30 0 -8 -7 -6 -20 7 -11 11 -27 20 -35 20 -8 0 -15 5 -15 10 0 14
8 13 41 -7z m112 -44 c62 -32 117 -78 117 -99 0 -59 -80 -251 -131 -313 -24
-30 -36 -35 -86 -40 -32 -3 -69 -9 -82 -13 -22 -6 -21 -4 12 42 75 106 106
198 114 342 3 56 8 102 10 102 2 0 23 -10 46 -21z m-943 -4 c0 -9 -6 -12 -15
-9 -9 4 -18 -2 -24 -17 -7 -17 -10 -19 -10 -7 -1 9 9 24 21 32 27 20 28 20 28
1z m1160 -72 c52 -59 154 -247 166 -308 4 -24 -4 -48 -36 -110 -23 -43 -55
-98 -72 -122 l-31 -43 -20 33 c-34 57 -91 109 -152 138 -33 16 -68 29 -77 29
-14 0 -7 16 31 74 51 78 105 223 117 314 3 28 10 52 14 52 5 0 32 -26 60 -57z
m-1242 -13 c-13 -20 -28 -27 -28 -12 0 10 22 32 32 32 5 0 3 -9 -4 -20z m1454
-292 c-8 -8 -9 -4 -5 13 4 13 8 18 11 10 2 -7 -1 -18 -6 -23z m19 -80 c5 -101
-1 -121 -57 -205 -46 -69 -192 -230 -199 -221 -6 8 8 77 15 73 5 -3 56 69 114
159 76 118 106 173 106 195 0 41 20 40 21 -1z m-1568 -52 c23 -14 113 -52 199
-86 125 -48 167 -70 204 -103 l47 -43 1 -71 c1 -56 6 -78 22 -99 45 -61 113
-89 181 -74 48 11 83 38 109 84 l21 38 7 -29 c11 -43 52 -100 96 -132 22 -15
36 -31 33 -35 -10 -10 -51 -7 -58 4 -3 6 -15 10 -25 10 -26 0 -50 -48 -50 -98
0 -33 4 -41 22 -45 22 -6 22 -7 -9 -39 -17 -18 -45 -61 -61 -94 -38 -75 -74
-106 -177 -155 -75 -35 -294 -113 -300 -107 -9 9 -25 182 -18 187 5 3 35 26
66 50 l57 43 0 119 c0 117 0 118 28 137 18 13 37 18 58 15 36 -6 59 16 49 46
-12 40 -75 34 -75 -8 0 -9 -16 -26 -35 -39 l-35 -22 -1 -88 c0 -139 -6 -155
-68 -202 -30 -22 -58 -40 -62 -40 -22 0 -80 67 -100 115 -24 58 -24 58 -124
70 -105 13 -107 14 -100 45 11 51 -19 95 -91 132 -35 18 -64 39 -64 46 0 21
29 71 96 169 l64 92 0 73 c0 40 3 103 6 140 l7 67 19 -24 c11 -14 38 -36 61
-49z m1430 -124 c-54 -84 -101 -152 -105 -152 -15 0 -8 58 8 71 32 26 105 129
147 206 36 66 42 74 45 52 2 -19 -23 -67 -95 -177z m-267 147 c63 -24 124 -74
160 -131 28 -45 29 -55 7 -80 -21 -24 -30 -23 -37 5 -3 12 -21 41 -41 64 -27
32 -32 42 -20 47 8 3 15 11 15 17 0 8 -7 6 -19 -5 -17 -16 -21 -16 -57 6 -32
19 -53 23 -124 23 -75 0 -91 -3 -131 -27 -67 -40 -109 -93 -133 -172 -5 -16
-11 -12 -36 23 l-30 41 19 39 c28 53 112 126 174 150 72 28 179 28 253 0z
m-46 -181 c56 -29 82 -73 82 -138 0 -91 -61 -152 -152 -152 -58 0 -103 24
-133 71 -27 45 -28 116 -1 162 21 37 92 79 134 79 14 0 46 -10 70 -22z m-428
-24 c90 -46 102 -173 23 -243 -47 -41 -95 -49 -153 -25 -60 25 -92 71 -92 131
0 125 110 193 222 137z m815 -108 c-42 -103 -111 -208 -173 -265 -43 -40 -46
-42 -59 -25 -13 18 -14 18 -34 0 -11 -10 -19 -28 -18 -40 2 -18 -9 -25 -70
-45 l-73 -24 -20 24 c-10 13 -19 26 -20 29 0 4 26 11 58 18 100 22 189 77 245
153 39 53 27 49 -27 -9 -52 -55 -115 -93 -215 -127 l-70 -24 -27 22 c-25 19
-26 21 -8 28 10 4 37 8 60 8 74 2 132 29 207 100 183 172 218 206 244 243 40
58 40 32 0 -66z m-1019 -189 c4 -20 -25 -34 -40 -19 -15 15 -1 44 19 40 10 -2
19 -11 21 -21z m437 -96 c90 -24 165 -127 164 -226 -1 -76 -7 -85 -46 -68 -50
20 -43 68 12 76 l30 4 -33 2 c-26 1 -35 7 -43 28 -9 25 -7 31 18 51 l28 24
-34 -17 c-31 -16 -35 -16 -50 -1 -15 15 -15 19 2 49 l19 32 -25 -23 c-21 -20
-27 -21 -51 -11 -28 13 -32 28 -15 62 10 21 10 21 -5 3 -9 -11 -16 -23 -16
-28 0 -17 -39 -7 -45 12 -8 25 12 52 34 46 9 -3 34 -9 56 -15z m469 -41 c35
-88 17 -141 -93 -268 -42 -49 -75 -97 -82 -122 -13 -43 -29 -54 -29 -20 0 34
29 81 103 164 98 112 115 163 82 243 -18 42 -18 43 -6 43 5 0 16 -18 25 -40z
m-94 -22 c40 -66 21 -116 -88 -230 -101 -107 -112 -124 -112 -174 0 -34 5 -47
26 -63 15 -12 32 -21 39 -21 7 0 18 -7 25 -15 11 -13 8 -15 -20 -15 -23 0 -41
9 -66 34 -28 28 -34 41 -34 78 0 56 24 95 115 183 115 110 135 157 95 223 -11
17 -15 32 -10 32 6 0 19 -15 30 -32z m-1302 -73 c110 -11 125 -30 31 -41 -47
-5 -60 -3 -91 17 -36 23 -52 46 -24 36 8 -3 45 -9 84 -12z m109 -61 c2 -6 -17
-27 -43 -47 -46 -36 -47 -36 -78 -20 -17 8 -32 17 -34 18 -2 1 0 14 3 28 6 24
12 26 63 30 76 5 85 4 89 -9z m66 -89 l58 -54 6 -84 6 -84 -66 -18 c-68 -18
-127 -16 -153 6 -15 12 -17 74 -6 166 6 46 12 55 52 87 25 19 45 35 45 35 0 1
26 -24 58 -54z m886 -24 c16 -10 10 -45 -13 -76 -15 -20 -15 -20 -42 7 -24 24
-26 30 -16 53 12 26 44 33 71 16z m-51 -84 l22 -23 -25 -24 -25 -24 -29 34
c-16 19 -26 40 -24 47 8 21 58 15 81 -10z m-69 -36 c12 -16 21 -32 21 -36 0
-3 -17 -13 -37 -21 -40 -17 -35 -20 -71 33 -7 10 -5 4 3 -14 19 -41 20 -39
-15 -53 -33 -14 -59 -2 -61 29 0 9 -3 11 -5 4 -3 -7 0 -21 6 -32 9 -17 6 -23
-15 -37 -24 -16 -27 -16 -47 2 -21 19 -21 19 -8 -5 10 -20 9 -26 -9 -44 l-21
-21 -27 25 c-25 22 -26 22 -9 1 25 -29 10 -50 -23 -33 -31 17 -26 37 22 87 41
43 220 142 259 143 9 1 26 -12 37 -28z m-1421 -938 l3 -33 -106 0 -106 0 3
-42 3 -43 90 -3 c113 -3 125 -14 125 -107 0 -48 -5 -68 -21 -89 -20 -26 -22
-26 -145 -26 l-125 0 3 33 3 32 108 3 107 3 0 44 0 45 -94 0 c-74 0 -96 3
-107 16 -18 22 -24 135 -9 163 17 34 46 40 160 38 l105 -2 3 -32z m350 -1 l3
-33 -143 3 c-128 3 -143 5 -146 21 -9 45 0 48 145 45 l138 -3 3 -33z m340 1
l3 -33 -99 0 c-73 0 -103 -4 -111 -14 -8 -9 -11 -50 -9 -117 l3 -104 105 -5
105 -5 3 -32 3 -33 -106 0 c-172 0 -190 21 -183 212 3 96 5 109 27 132 29 31
43 34 161 32 l95 -1 3 -32z m120 -107 c1 -85 7 -145 14 -153 8 -10 33 -13 92
-11 l81 3 5 150 5 150 30 0 30 0 3 -135 c5 -219 -9 -240 -166 -240 -144 0
-162 26 -162 241 0 69 3 129 7 133 4 4 19 6 33 4 l25 -3 3 -139z m569 134 c37
-13 53 -46 53 -108 0 -50 -19 -89 -50 -100 -17 -6 -15 -13 21 -72 21 -36 39
-71 39 -77 0 -8 -13 -13 -33 -13 -30 0 -36 6 -77 78 l-45 77 -48 3 -47 3 0
-81 0 -81 -32 3 -33 3 -3 108 -3 107 116 0 c111 0 116 1 124 23 5 12 5 31 1
42 -7 18 -18 20 -124 23 l-116 3 0 28 c0 15 3 31 7 34 10 11 217 8 250 -3z
m401 -28 l3 -33 -143 3 c-128 3 -143 5 -146 21 -9 45 0 48 145 45 l138 -3 3
-33z m496 16 c14 -23 146 -341 146 -353 0 -3 -16 -5 -36 -3 l-36 3 -58 145
c-52 130 -59 142 -68 120 -5 -14 -17 -42 -26 -64 -23 -55 -21 -66 14 -66 24 0
33 -6 41 -27 13 -34 0 -43 -62 -43 -42 0 -47 -3 -62 -35 -14 -29 -22 -35 -47
-35 -18 0 -30 5 -30 13 0 26 132 342 148 355 25 19 60 14 76 -10z m264 -171
l2 -188 -32 3 -33 3 -3 175 c-1 96 0 180 3 188 3 8 16 12 32 10 l28 -3 3 -188z
m-2188 3 l0 -30 -110 0 -110 0 0 -28 c0 -46 15 -52 123 -52 l98 0 -3 -37 -3
-38 -96 -3 c-107 -3 -140 5 -164 42 -22 33 -32 140 -15 161 10 12 39 15 146
15 l134 0 0 -30z m1430 0 l0 -30 -110 0 c-105 0 -110 -1 -110 -21 0 -11 5 -29
10 -40 10 -17 22 -19 110 -19 l100 0 0 -40 0 -40 -99 0 c-113 0 -143 8 -167
45 -17 27 -25 140 -11 163 6 8 46 12 143 12 l134 0 0 -30z m-150 -364 c0 -45
-5 -69 -16 -80 -24 -25 -61 -20 -81 10 -15 24 -15 29 -2 53 11 20 23 26 47 26
26 0 32 4 32 21 0 18 8 34 17 34 2 0 3 -29 3 -64z m220 31 c0 -18 6 -22 32
-22 24 0 35 -6 44 -24 24 -47 -14 -93 -63 -75 -23 8 -30 18 -37 55 -10 50 -1
104 14 94 6 -3 10 -16 10 -28z m-600 -1 c0 -8 6 -17 13 -20 10 -5 10 -7 0 -12
-19 -8 -17 -74 2 -74 8 0 15 -5 15 -11 0 -6 -10 -9 -22 -7 -19 2 -24 10 -26
46 -2 23 -7 42 -12 42 -4 0 -3 11 3 25 13 27 27 33 27 11z m-968 -33 c40 -36
9 -100 -44 -89 -26 5 -28 3 -28 -25 0 -18 -4 -28 -10 -24 -17 11 -12 116 7
137 20 22 51 23 75 1z m178 8 c0 -5 -12 -11 -27 -13 -25 -3 -28 -7 -31 -45 -2
-24 -7 -43 -13 -43 -9 0 -13 92 -4 101 9 10 75 9 75 0z m154 -13 c24 -34 20
-38 -30 -38 -41 0 -45 -2 -34 -16 7 -8 24 -14 36 -12 13 2 23 -1 24 -7 0 -5
-14 -10 -32 -10 -24 0 -36 6 -47 26 -13 24 -13 29 2 53 22 33 60 34 81 4z
m164 5 c2 -9 -5 -11 -27 -7 -20 4 -31 2 -31 -5 0 -6 6 -11 14 -11 8 0 24 -8
37 -19 20 -16 22 -21 10 -35 -16 -19 -72 -18 -79 1 -2 9 5 11 27 7 38 -8 43
12 7 26 -32 12 -40 28 -25 46 14 17 60 15 67 -3z m166 1 c29 -28 20 -44 -25
-44 -28 0 -39 -4 -36 -12 2 -7 18 -13 35 -13 18 0 31 -4 29 -10 -6 -17 -54
-17 -71 0 -32 33 -10 95 34 95 10 0 26 -7 34 -16z m180 0 c18 -17 22 -94 6
-94 -5 0 -10 15 -10 33 0 41 -12 60 -36 55 -13 -2 -20 -14 -24 -41 -3 -21 -9
-39 -15 -40 -10 -2 -20 66 -12 87 7 18 73 18 91 0z m310 0 c29 -28 20 -44 -25
-44 -28 0 -39 -4 -36 -12 2 -7 18 -13 35 -13 18 0 31 -4 29 -10 -6 -17 -54
-17 -71 0 -32 33 -10 95 34 95 10 0 26 -7 34 -16z m605 -21 l19 -38 16 38 c9
20 21 37 26 37 14 0 14 0 -26 -87 -20 -43 -38 -73 -40 -67 -3 6 -1 21 4 34 7
18 3 34 -14 64 -26 45 -29 56 -14 56 5 0 18 -17 29 -37z m-1063 -207 c24 -18
13 -31 -14 -15 -11 7 -27 9 -36 6 -28 -11 -14 -38 24 -51 38 -12 52 -45 30
-72 -16 -19 -74 -18 -90 1 -16 20 -5 32 14 16 22 -19 61 -10 61 13 0 14 -10
22 -32 28 -18 5 -38 18 -44 30 -10 18 -8 24 11 40 27 22 50 23 76 4z m120 -27
l26 -42 28 43 c15 23 30 38 33 33 3 -5 -7 -29 -24 -54 -16 -24 -29 -56 -29
-71 0 -16 -4 -28 -10 -28 -5 0 -10 14 -10 31 0 16 -11 47 -25 67 -23 34 -32
62 -20 62 3 0 16 -19 31 -41z m184 0 c0 -28 2 -29 45 -29 43 0 45 1 45 29 0
17 5 33 10 36 6 4 10 -23 10 -74 0 -47 -4 -81 -10 -81 -5 0 -10 16 -10 35 0
35 0 35 -45 35 -45 0 -45 0 -45 -35 0 -19 -4 -35 -10 -35 -6 0 -10 34 -10 81
0 51 4 78 10 74 6 -3 10 -19 10 -36z"/>
<path d="M2961 3802 c2 -7 24 -24 48 -39 24 -14 42 -20 39 -13 -2 7 -23 24
-47 38 -24 14 -42 20 -40 14z"/>
<path d="M2950 3730 c0 -10 63 -40 83 -40 18 0 -5 17 -45 34 -21 8 -38 11 -38
6z"/>
<path d="M2940 3670 c0 -13 58 -42 73 -37 7 2 -7 14 -30 26 -24 12 -43 17 -43
11z"/>
<path d="M2920 3605 c0 -5 55 -35 65 -35 15 0 2 18 -20 28 -27 13 -45 15 -45
7z"/>
<path d="M2900 3541 c0 -4 11 -13 25 -19 31 -14 35 -15 35 -3 0 5 -13 14 -30
20 -16 5 -30 6 -30 2z"/>
<path d="M2870 3481 c0 -10 50 -25 58 -17 2 3 -7 10 -22 16 -33 12 -36 12 -36
1z"/>
<path d="M1826 3230 c8 -8 9 -22 2 -47 -8 -30 -4 -84 9 -105 2 -4 22 5 43 21
22 16 61 34 86 40 53 13 49 22 -16 40 -25 7 -65 24 -90 37 -25 14 -40 20 -34
14z m98 -92 c-20 -9 -42 -22 -49 -28 -10 -9 -14 0 -17 42 l-3 53 52 -25 53
-24 -36 -18z"/>
<path d="M2880 3369 c0 -11 5 -17 10 -14 6 3 10 13 10 21 0 8 -4 14 -10 14 -5
0 -10 -9 -10 -21z"/>
<path d="M2810 3366 c0 -8 5 -18 10 -21 6 -3 10 3 10 14 0 12 -4 21 -10 21 -5
0 -10 -6 -10 -14z"/>
<path d="M2947 3365 c-4 -8 -2 -17 3 -20 6 -4 10 -4 10 -1 0 2 3 11 6 20 3 9
2 16 -4 16 -5 0 -12 -7 -15 -15z"/>
<path d="M2740 3346 c0 -8 5 -18 10 -21 6 -3 10 1 10 9 0 8 -4 18 -10 21 -5 3
-10 -1 -10 -9z"/>
<path d="M3011 3346 c-8 -10 -9 -16 -1 -21 5 -3 13 1 16 10 9 22 -1 29 -15 11z"/>
<path d="M2680 3295 c7 -9 15 -13 17 -11 7 7 -7 26 -19 26 -6 0 -6 -6 2 -15z"/>
<path d="M3120 3265 c-7 -9 -11 -18 -8 -20 3 -3 11 1 18 10 7 9 11 18 8 20 -3
3 -11 -1 -18 -10z"/>
<path d="M2633 3243 c9 -9 20 -13 24 -9 4 4 1 11 -7 16 -25 16 -35 11 -17 -7z"/>
<path d="M3145 3209 c-11 -17 0 -20 21 -4 17 13 17 14 2 15 -9 0 -20 -5 -23
-11z"/>
<path d="M2590 3192 c0 -5 7 -13 16 -16 10 -4 14 -1 12 6 -5 15 -28 23 -28 10z"/>
<path d="M2828 3174 c-54 -29 -74 -109 -42 -164 43 -71 134 -79 191 -16 92
101 -28 246 -149 180z m111 -18 c30 -16 51 -53 51 -92 0 -38 -59 -94 -100 -94
-43 0 -100 56 -100 97 1 79 78 125 149 89z"/>
<path d="M2404 3141 c-43 -26 -60 -77 -41 -123 18 -44 38 -59 86 -65 36 -5 44
-2 76 30 45 45 48 92 8 137 -36 40 -86 48 -129 21z m90 -7 c9 -3 16 -10 16
-14 0 -13 -121 -100 -131 -94 -19 11 -8 56 20 85 28 28 61 36 95 23z m46 -84
c0 -43 -39 -80 -84 -80 -19 0 -37 4 -40 8 -3 6 108 99 122 102 1 0 2 -14 2
-30z"/>
<path d="M2910 885 c-18 -22 -1 -50 31 -50 20 0 24 5 24 30 0 23 -5 31 -21 33
-11 2 -27 -4 -34 -13z"/>
<path d="M3214 886 c-10 -25 0 -51 20 -54 27 -6 48 25 35 49 -12 22 -47 25
-55 5z"/>
<path d="M1580 885 c-18 -21 -3 -55 25 -55 29 0 39 14 31 46 -7 27 -37 32 -56
9z"/>
<path d="M1910 885 c0 -9 9 -15 25 -15 16 0 25 6 25 15 0 9 -9 15 -25 15 -16
0 -25 -6 -25 -15z"/>
<path d="M2247 894 c-15 -15 -6 -24 24 -24 20 0 29 4 27 13 -5 14 -40 21 -51
11z"/>
<path d="M2737 894 c-15 -15 -6 -24 24 -24 20 0 29 4 27 13 -5 14 -40 21 -51
11z"/>
</g>
</svg>
